<mxfile host="app.diagrams.net" modified="2021-01-29T07:26:15.969Z" agent="5.0 (Macintosh; Intel Mac OS X 10_15_4) AppleWebKit/537.36 (KHTML, like Gecko) Chrome/75.0.3770.80 Safari/537.36" etag="WtFFkFCIz7ooA3jSqprr" version="14.2.7" type="github">
  <diagram id="y_1CCmiTkbl28zqE2IG5" name="Page-1">
    <mxGraphModel dx="1666" dy="771" grid="1" gridSize="10" guides="1" tooltips="1" connect="1" arrows="1" fold="1" page="1" pageScale="1" pageWidth="827" pageHeight="1169" math="0" shadow="0">
      <root>
        <mxCell id="0" />
        <mxCell id="1" parent="0" />
        <mxCell id="nJFqL7pHRlc-OOZfWNgM-2" value="" style="rounded=0;whiteSpace=wrap;html=1;fillColor=#7EA6E0;" vertex="1" parent="1">
          <mxGeometry x="710" y="340" width="440" height="70" as="geometry" />
        </mxCell>
        <mxCell id="nJFqL7pHRlc-OOZfWNgM-3" value="" style="shape=table;html=1;whiteSpace=wrap;startSize=0;container=1;collapsible=0;childLayout=tableLayout;strokeColor=#97D077;" vertex="1" parent="1">
          <mxGeometry x="710" y="490" width="120" height="120" as="geometry" />
        </mxCell>
        <mxCell id="nJFqL7pHRlc-OOZfWNgM-4" value="" style="shape=partialRectangle;html=1;whiteSpace=wrap;collapsible=0;dropTarget=0;pointerEvents=0;fillColor=none;top=0;left=0;bottom=0;right=0;points=[[0,0.5],[1,0.5]];portConstraint=eastwest;" vertex="1" parent="nJFqL7pHRlc-OOZfWNgM-3">
          <mxGeometry width="120" height="40" as="geometry" />
        </mxCell>
        <mxCell id="nJFqL7pHRlc-OOZfWNgM-5" value="jobID" style="shape=partialRectangle;html=1;whiteSpace=wrap;connectable=0;overflow=hidden;fillColor=#97D077;top=0;left=0;bottom=0;right=0;" vertex="1" parent="nJFqL7pHRlc-OOZfWNgM-4">
          <mxGeometry width="60" height="40" as="geometry" />
        </mxCell>
        <mxCell id="nJFqL7pHRlc-OOZfWNgM-6" value="消息体" style="shape=partialRectangle;html=1;whiteSpace=wrap;connectable=0;overflow=hidden;fillColor=#F19C99;top=0;left=0;bottom=0;right=0;" vertex="1" parent="nJFqL7pHRlc-OOZfWNgM-4">
          <mxGeometry x="60" width="60" height="40" as="geometry" />
        </mxCell>
        <mxCell id="nJFqL7pHRlc-OOZfWNgM-7" value="" style="shape=partialRectangle;html=1;whiteSpace=wrap;collapsible=0;dropTarget=0;pointerEvents=0;fillColor=none;top=0;left=0;bottom=0;right=0;points=[[0,0.5],[1,0.5]];portConstraint=eastwest;" vertex="1" parent="nJFqL7pHRlc-OOZfWNgM-3">
          <mxGeometry y="40" width="120" height="40" as="geometry" />
        </mxCell>
        <mxCell id="nJFqL7pHRlc-OOZfWNgM-8" value="jobID" style="shape=partialRectangle;html=1;whiteSpace=wrap;connectable=0;overflow=hidden;fillColor=none;top=0;left=0;bottom=0;right=0;" vertex="1" parent="nJFqL7pHRlc-OOZfWNgM-7">
          <mxGeometry width="60" height="40" as="geometry" />
        </mxCell>
        <mxCell id="nJFqL7pHRlc-OOZfWNgM-9" value="消息体" style="shape=partialRectangle;html=1;whiteSpace=wrap;connectable=0;overflow=hidden;fillColor=none;top=0;left=0;bottom=0;right=0;" vertex="1" parent="nJFqL7pHRlc-OOZfWNgM-7">
          <mxGeometry x="60" width="60" height="40" as="geometry" />
        </mxCell>
        <mxCell id="nJFqL7pHRlc-OOZfWNgM-10" value="" style="shape=partialRectangle;html=1;whiteSpace=wrap;collapsible=0;dropTarget=0;pointerEvents=0;fillColor=none;top=0;left=0;bottom=0;right=0;points=[[0,0.5],[1,0.5]];portConstraint=eastwest;" vertex="1" parent="nJFqL7pHRlc-OOZfWNgM-3">
          <mxGeometry y="80" width="120" height="40" as="geometry" />
        </mxCell>
        <mxCell id="nJFqL7pHRlc-OOZfWNgM-11" value="jobID" style="shape=partialRectangle;html=1;whiteSpace=wrap;connectable=0;overflow=hidden;fillColor=#97D077;top=0;left=0;bottom=0;right=0;" vertex="1" parent="nJFqL7pHRlc-OOZfWNgM-10">
          <mxGeometry width="60" height="40" as="geometry" />
        </mxCell>
        <mxCell id="nJFqL7pHRlc-OOZfWNgM-12" value="消息体" style="shape=partialRectangle;html=1;whiteSpace=wrap;connectable=0;overflow=hidden;fillColor=#F19C99;top=0;left=0;bottom=0;right=0;" vertex="1" parent="nJFqL7pHRlc-OOZfWNgM-10">
          <mxGeometry x="60" width="60" height="40" as="geometry" />
        </mxCell>
        <mxCell id="nJFqL7pHRlc-OOZfWNgM-13" value="messages（保存消息体）" style="text;html=1;align=center;verticalAlign=middle;resizable=0;points=[];autosize=1;" vertex="1" parent="1">
          <mxGeometry x="695" y="620" width="150" height="20" as="geometry" />
        </mxCell>
        <mxCell id="nJFqL7pHRlc-OOZfWNgM-14" value="" style="shape=table;html=1;whiteSpace=wrap;startSize=0;container=1;collapsible=0;childLayout=tableLayout;" vertex="1" parent="1">
          <mxGeometry x="580" y="490" width="60" height="40" as="geometry" />
        </mxCell>
        <mxCell id="nJFqL7pHRlc-OOZfWNgM-15" value="" style="shape=partialRectangle;html=1;whiteSpace=wrap;collapsible=0;dropTarget=0;pointerEvents=0;fillColor=none;top=0;left=0;bottom=0;right=0;points=[[0,0.5],[1,0.5]];portConstraint=eastwest;" vertex="1" parent="nJFqL7pHRlc-OOZfWNgM-14">
          <mxGeometry width="60" height="40" as="geometry" />
        </mxCell>
        <mxCell id="nJFqL7pHRlc-OOZfWNgM-16" value="jobID" style="shape=partialRectangle;html=1;whiteSpace=wrap;connectable=0;overflow=hidden;fillColor=#E6D0DE;top=0;left=0;bottom=0;right=0;" vertex="1" parent="nJFqL7pHRlc-OOZfWNgM-15">
          <mxGeometry width="60" height="40" as="geometry" />
        </mxCell>
        <mxCell id="nJFqL7pHRlc-OOZfWNgM-17" value="message_id" style="text;html=1;align=center;verticalAlign=middle;resizable=0;points=[];autosize=1;" vertex="1" parent="1">
          <mxGeometry x="570" y="530" width="80" height="20" as="geometry" />
        </mxCell>
        <mxCell id="nJFqL7pHRlc-OOZfWNgM-18" value="waiting（即时队列）" style="text;html=1;align=center;verticalAlign=middle;resizable=0;points=[];autosize=1;" vertex="1" parent="1">
          <mxGeometry x="850" y="410" width="120" height="20" as="geometry" />
        </mxCell>
        <mxCell id="nJFqL7pHRlc-OOZfWNgM-19" value="" style="shape=table;html=1;whiteSpace=wrap;startSize=0;container=1;collapsible=0;childLayout=tableLayout;fillColor=#97D077;" vertex="1" parent="1">
          <mxGeometry x="740" y="355" width="40" height="40" as="geometry" />
        </mxCell>
        <mxCell id="nJFqL7pHRlc-OOZfWNgM-20" value="" style="shape=partialRectangle;html=1;whiteSpace=wrap;collapsible=0;dropTarget=0;pointerEvents=0;fillColor=none;top=0;left=0;bottom=0;right=0;points=[[0,0.5],[1,0.5]];portConstraint=eastwest;" vertex="1" parent="nJFqL7pHRlc-OOZfWNgM-19">
          <mxGeometry width="40" height="40" as="geometry" />
        </mxCell>
        <mxCell id="nJFqL7pHRlc-OOZfWNgM-21" value="jobID" style="shape=partialRectangle;html=1;whiteSpace=wrap;connectable=0;overflow=hidden;fillColor=none;top=0;left=0;bottom=0;right=0;" vertex="1" parent="nJFqL7pHRlc-OOZfWNgM-20">
          <mxGeometry width="40" height="40" as="geometry" />
        </mxCell>
        <mxCell id="nJFqL7pHRlc-OOZfWNgM-22" value="" style="shape=table;html=1;whiteSpace=wrap;startSize=0;container=1;collapsible=0;childLayout=tableLayout;fillColor=#97D077;" vertex="1" parent="1">
          <mxGeometry x="875" y="355" width="40" height="40" as="geometry" />
        </mxCell>
        <mxCell id="nJFqL7pHRlc-OOZfWNgM-23" value="" style="shape=partialRectangle;html=1;whiteSpace=wrap;collapsible=0;dropTarget=0;pointerEvents=0;fillColor=none;top=0;left=0;bottom=0;right=0;points=[[0,0.5],[1,0.5]];portConstraint=eastwest;" vertex="1" parent="nJFqL7pHRlc-OOZfWNgM-22">
          <mxGeometry width="40" height="40" as="geometry" />
        </mxCell>
        <mxCell id="nJFqL7pHRlc-OOZfWNgM-24" value="jobID" style="shape=partialRectangle;html=1;whiteSpace=wrap;connectable=0;overflow=hidden;fillColor=none;top=0;left=0;bottom=0;right=0;" vertex="1" parent="nJFqL7pHRlc-OOZfWNgM-23">
          <mxGeometry width="40" height="40" as="geometry" />
        </mxCell>
        <mxCell id="nJFqL7pHRlc-OOZfWNgM-25" value="" style="shape=table;html=1;whiteSpace=wrap;startSize=0;container=1;collapsible=0;childLayout=tableLayout;fillColor=#97D077;" vertex="1" parent="1">
          <mxGeometry x="810" y="355" width="40" height="40" as="geometry" />
        </mxCell>
        <mxCell id="nJFqL7pHRlc-OOZfWNgM-26" value="" style="shape=partialRectangle;html=1;whiteSpace=wrap;collapsible=0;dropTarget=0;pointerEvents=0;fillColor=none;top=0;left=0;bottom=0;right=0;points=[[0,0.5],[1,0.5]];portConstraint=eastwest;" vertex="1" parent="nJFqL7pHRlc-OOZfWNgM-25">
          <mxGeometry width="40" height="40" as="geometry" />
        </mxCell>
        <mxCell id="nJFqL7pHRlc-OOZfWNgM-27" value="jobID" style="shape=partialRectangle;html=1;whiteSpace=wrap;connectable=0;overflow=hidden;fillColor=none;top=0;left=0;bottom=0;right=0;" vertex="1" parent="nJFqL7pHRlc-OOZfWNgM-26">
          <mxGeometry width="40" height="40" as="geometry" />
        </mxCell>
        <mxCell id="nJFqL7pHRlc-OOZfWNgM-28" value="" style="shape=table;html=1;whiteSpace=wrap;startSize=0;container=1;collapsible=0;childLayout=tableLayout;fillColor=#97D077;" vertex="1" parent="1">
          <mxGeometry x="940" y="355" width="40" height="40" as="geometry" />
        </mxCell>
        <mxCell id="nJFqL7pHRlc-OOZfWNgM-29" value="" style="shape=partialRectangle;html=1;whiteSpace=wrap;collapsible=0;dropTarget=0;pointerEvents=0;fillColor=none;top=0;left=0;bottom=0;right=0;points=[[0,0.5],[1,0.5]];portConstraint=eastwest;" vertex="1" parent="nJFqL7pHRlc-OOZfWNgM-28">
          <mxGeometry width="40" height="40" as="geometry" />
        </mxCell>
        <mxCell id="nJFqL7pHRlc-OOZfWNgM-30" value="jobID" style="shape=partialRectangle;html=1;whiteSpace=wrap;connectable=0;overflow=hidden;fillColor=none;top=0;left=0;bottom=0;right=0;" vertex="1" parent="nJFqL7pHRlc-OOZfWNgM-29">
          <mxGeometry width="40" height="40" as="geometry" />
        </mxCell>
        <mxCell id="nJFqL7pHRlc-OOZfWNgM-97" value="生产者" style="ellipse;whiteSpace=wrap;html=1;shadow=1;strokeColor=#000000;fillColor=#67AB9F;" vertex="1" parent="1">
          <mxGeometry x="270" y="360" width="80" height="35" as="geometry" />
        </mxCell>
        <mxCell id="nJFqL7pHRlc-OOZfWNgM-98" value="" style="endArrow=classic;html=1;entryX=-0.005;entryY=0.629;entryDx=0;entryDy=0;exitX=1;exitY=0.5;exitDx=0;exitDy=0;entryPerimeter=0;" edge="1" parent="1" source="nJFqL7pHRlc-OOZfWNgM-97">
          <mxGeometry relative="1" as="geometry">
            <mxPoint x="471.03999999999996" y="378.0050000000001" as="sourcePoint" />
            <mxPoint x="707.8000000000002" y="381.03" as="targetPoint" />
          </mxGeometry>
        </mxCell>
        <mxCell id="nJFqL7pHRlc-OOZfWNgM-99" value="&lt;div style=&quot;text-align: left&quot;&gt;&amp;nbsp; &amp;nbsp; &amp;nbsp; &amp;nbsp; &amp;nbsp; &amp;nbsp; &amp;nbsp; &amp;nbsp; &amp;nbsp; &amp;nbsp;push()&lt;/div&gt;&lt;span style=&quot;font-size: 11px&quot;&gt;&lt;div style=&quot;text-align: left&quot;&gt;1. incr message_id =&amp;gt; jobId&lt;/div&gt;&lt;div style=&quot;text-align: left&quot;&gt;2. hset messages jobId message&lt;/div&gt;&lt;div style=&quot;text-align: left&quot;&gt;3. lpush waiting jobId&lt;/div&gt;&lt;/span&gt;" style="edgeLabel;resizable=0;html=1;align=center;verticalAlign=middle;" connectable="0" vertex="1" parent="nJFqL7pHRlc-OOZfWNgM-98">
          <mxGeometry relative="1" as="geometry">
            <mxPoint x="-48.99" y="-1.7699999999999998" as="offset" />
          </mxGeometry>
        </mxCell>
        <mxCell id="nJFqL7pHRlc-OOZfWNgM-103" value="" style="curved=1;endArrow=classic;html=1;entryX=0.433;entryY=-0.025;entryDx=0;entryDy=0;entryPerimeter=0;" edge="1" parent="1" target="nJFqL7pHRlc-OOZfWNgM-15">
          <mxGeometry width="50" height="50" relative="1" as="geometry">
            <mxPoint x="610" y="380" as="sourcePoint" />
            <mxPoint x="970" y="320" as="targetPoint" />
            <Array as="points">
              <mxPoint x="600" y="430" />
              <mxPoint x="600" y="470" />
            </Array>
          </mxGeometry>
        </mxCell>
        <mxCell id="nJFqL7pHRlc-OOZfWNgM-104" value="" style="curved=1;endArrow=classic;html=1;entryX=-0.008;entryY=0.125;entryDx=0;entryDy=0;entryPerimeter=0;" edge="1" parent="1" target="nJFqL7pHRlc-OOZfWNgM-4">
          <mxGeometry width="50" height="50" relative="1" as="geometry">
            <mxPoint x="610" y="380" as="sourcePoint" />
            <mxPoint x="970" y="320" as="targetPoint" />
            <Array as="points">
              <mxPoint x="670" y="420" />
            </Array>
          </mxGeometry>
        </mxCell>
        <mxCell id="nJFqL7pHRlc-OOZfWNgM-118" value="" style="shape=table;html=1;whiteSpace=wrap;startSize=0;container=1;collapsible=0;childLayout=tableLayout;fillColor=#97D077;" vertex="1" parent="1">
          <mxGeometry x="1080" y="355" width="40" height="40" as="geometry" />
        </mxCell>
        <mxCell id="nJFqL7pHRlc-OOZfWNgM-119" value="" style="shape=partialRectangle;html=1;whiteSpace=wrap;collapsible=0;dropTarget=0;pointerEvents=0;fillColor=none;top=0;left=0;bottom=0;right=0;points=[[0,0.5],[1,0.5]];portConstraint=eastwest;" vertex="1" parent="nJFqL7pHRlc-OOZfWNgM-118">
          <mxGeometry width="40" height="40" as="geometry" />
        </mxCell>
        <mxCell id="nJFqL7pHRlc-OOZfWNgM-120" value="jobID" style="shape=partialRectangle;html=1;whiteSpace=wrap;connectable=0;overflow=hidden;fillColor=none;top=0;left=0;bottom=0;right=0;" vertex="1" parent="nJFqL7pHRlc-OOZfWNgM-119">
          <mxGeometry width="40" height="40" as="geometry" />
        </mxCell>
        <mxCell id="nJFqL7pHRlc-OOZfWNgM-121" value="" style="shape=table;html=1;whiteSpace=wrap;startSize=0;container=1;collapsible=0;childLayout=tableLayout;fillColor=#97D077;" vertex="1" parent="1">
          <mxGeometry x="1010" y="355" width="40" height="40" as="geometry" />
        </mxCell>
        <mxCell id="nJFqL7pHRlc-OOZfWNgM-122" value="" style="shape=partialRectangle;html=1;whiteSpace=wrap;collapsible=0;dropTarget=0;pointerEvents=0;fillColor=none;top=0;left=0;bottom=0;right=0;points=[[0,0.5],[1,0.5]];portConstraint=eastwest;" vertex="1" parent="nJFqL7pHRlc-OOZfWNgM-121">
          <mxGeometry width="40" height="40" as="geometry" />
        </mxCell>
        <mxCell id="nJFqL7pHRlc-OOZfWNgM-123" value="jobID" style="shape=partialRectangle;html=1;whiteSpace=wrap;connectable=0;overflow=hidden;fillColor=none;top=0;left=0;bottom=0;right=0;" vertex="1" parent="nJFqL7pHRlc-OOZfWNgM-122">
          <mxGeometry width="40" height="40" as="geometry" />
        </mxCell>
      </root>
    </mxGraphModel>
  </diagram>
</mxfile>
